<?xml version="1.0" encoding="UTF-8" standalone="no"?>
<!-- Created with Inkscape (http://www.inkscape.org/) -->

<svg
   width="108.07404mm"
   height="29.74662mm"
   viewBox="0 0 108.07404 29.74662"
   version="1.1"
   id="svg3223"
   inkscape:version="1.3.2 (091e20e, 2023-11-25, custom)"
   sodipodi:docname="logo.svg"
   inkscape:export-filename="/home/pj/Projects/space-station-14/RobustToolbox/Resources/Textures/Logo/logo.png"
   inkscape:export-xdpi="67.034012"
   inkscape:export-ydpi="67.034012"
   xmlns:inkscape="http://www.inkscape.org/namespaces/inkscape"
   xmlns:sodipodi="http://sodipodi.sourceforge.net/DTD/sodipodi-0.dtd"
   xmlns="http://www.w3.org/2000/svg"
   xmlns:svg="http://www.w3.org/2000/svg"
   xmlns:rdf="http://www.w3.org/1999/02/22-rdf-syntax-ns#"
   xmlns:cc="http://creativecommons.org/ns#"
   xmlns:dc="http://purl.org/dc/elements/1.1/">
  <defs
     id="defs3217" />
  <sodipodi:namedview
     id="base"
     pagecolor="#ffffff"
     bordercolor="#666666"
     borderopacity="1.0"
     inkscape:pageopacity="0.0"
     inkscape:pageshadow="2"
     inkscape:zoom="3.9666257"
     inkscape:cx="201.43065"
     inkscape:cy="78.782325"
     inkscape:document-units="mm"
     inkscape:current-layer="layer1"
     showgrid="false"
     inkscape:pagecheckerboard="true"
     inkscape:window-width="2560"
     inkscape:window-height="1566"
     inkscape:window-x="-11"
     inkscape:window-y="-11"
     inkscape:window-maximized="1"
     inkscape:showpageshadow="2"
     inkscape:deskcolor="#d1d1d1" />
  <metadata
     id="metadata3220">
    <rdf:RDF>
      <cc:Work
         rdf:about="">
        <dc:format>image/svg+xml</dc:format>
        <dc:type
           rdf:resource="http://purl.org/dc/dcmitype/StillImage" />
        <dc:title />
      </cc:Work>
    </rdf:RDF>
  </metadata>
  <g
     inkscape:label="Layer 1"
     inkscape:groupmode="layer"
     id="layer1"
     transform="translate(-62.155636,-109.30405)">
    <g
       transform="translate(-3.7799155,-23.482217)"
       id="g2559">
      <path
         inkscape:connector-curvature="0"
         id="path172"
         style="fill:#d5d5d5;fill-opacity:1;fill-rule:nonzero;stroke:none;stroke-width:0.347732"
         d="m 112.23379,146.13262 -4.73466,0.33077 0.57447,-2.73456 2.13929,-0.14973 -0.37624,1.80924 2.59544,-0.18103 0.93087,-4.44332 -7.33011,0.5118 -1.66358,8.00131 4.73467,-0.33077 -0.77301,3.62025 -2.11983,0.1484 0.47569,-2.23174 -2.61498,0.18237 -1.03033,4.86616 7.33011,-0.5118 z" />
      <path
         inkscape:connector-curvature="0"
         id="path176"
         style="fill:#d5d5d5;fill-opacity:1;fill-rule:nonzero;stroke:none;stroke-width:0.347732"
         d="m 115.95849,143.17761 2.49609,-0.17422 -2.43655,11.62085 2.59515,-0.182 2.4369,-11.62086 2.49602,-0.17421 0.55468,-2.63441 -7.58751,0.53064 z" />
      <path
         inkscape:connector-curvature="0"
         id="path180"
         style="fill:#d5d5d5;fill-opacity:1;fill-rule:nonzero;stroke:none;stroke-width:0.347732"
         d="m 128.73698,144.939 0.55461,-2.69318 2.11975,-0.1484 -0.55498,2.69354 z m 2.83263,8.59803 2.99189,-14.25529 -7.31038,0.51154 -2.99153,14.25493 2.59523,-0.18201 1.32729,-6.27378 2.11968,-0.14839 -1.32729,6.27414 z" />
      <path
         inkscape:connector-curvature="0"
         id="path180-4"
         style="fill:#d5d5d5;fill-opacity:1;fill-rule:nonzero;stroke:none;stroke-width:0.347732"
         d="m 82.498641,154.96568 -2.11975,0.1484 z m -2.27802,-11.29121 -2.99189,14.25529 7.31038,-0.51154 2.99153,-14.25493 -2.59523,0.18201 -2.435422,11.61296 -2.11968,0.16854 2.435422,-11.63347 z"
         sodipodi:nodetypes="cccccccccccc" />
      <path
         inkscape:connector-curvature="0"
         id="path184"
         style="fill:#d5d5d5;fill-opacity:1;fill-rule:nonzero;stroke:none;stroke-width:0.347732"
         d="m 140.14134,152.96063 2.43693,-11.62086 2.49608,-0.1752 0.55493,-2.63374 -7.58752,0.53065 -0.55463,2.63373 2.49594,-0.17421 -2.43659,11.6212 z" />
      <path
         inkscape:connector-curvature="0"
         id="path188"
         style="fill:#d5d5d5;fill-opacity:1;fill-rule:nonzero;stroke:none;stroke-width:0.347732"
         d="m 145.78792,152.56569 2.5951,-0.18101 2.9915,-14.25528 -2.59522,0.182 z" />
      <path
         inkscape:connector-curvature="0"
         id="path192"
         style="fill:#d5d5d5;fill-opacity:1;fill-rule:nonzero;stroke:none;stroke-width:0.347732"
         d="m 156.89564,140.36145 2.11975,-0.14839 -1.88236,8.98749 -2.11949,0.14838 z m -5.03203,11.80203 7.31001,-0.51042 2.99153,-14.25494 -7.31028,0.51044 z" />
      <path
         inkscape:connector-curvature="0"
         id="path196"
         style="fill:#d5d5d5;fill-opacity:1;fill-rule:nonzero;stroke:none;stroke-width:0.347732"
         d="m 165.24904,151.25148 1.36653,-6.47511 1.18856,6.29603 2.25853,-0.15792 2.99192,-14.25493 -2.59522,0.18201 -1.36734,6.57353 -1.18854,-6.39514 -2.25854,0.15791 -2.99084,14.25493 z" />
      <path
         inkscape:connector-curvature="0"
         id="path196-9"
         style="fill:#d5d5d5;fill-opacity:1;fill-rule:nonzero;stroke:none;stroke-width:0.347732"
         d="m 69.453069,158.40149 1.36653,-6.47511 1.18856,6.29603 2.25853,-0.15792 2.99192,-14.25493 -2.59522,0.18201 -1.36734,6.57353 -1.18854,-6.39514 -2.25854,0.15791 -2.99084,14.25493 z" />
      <path
         inkscape:connector-curvature="0"
         id="path204"
         style="fill:#000000;fill-opacity:1;fill-rule:nonzero;stroke:none;stroke-width:0.347732"
         d="m 70.519326,139.92277 -0.277457,1.36553 103.473271,-7.11317 0.29445,-1.38886 z" />
      <path
         inkscape:connector-curvature="0"
         id="path208"
         style="fill:#000000;fill-opacity:1;fill-rule:nonzero;stroke:none;stroke-width:0.347732"
         d="m 65.935551,162.53289 103.473299,-7.11356 0.29444,-1.38885 -103.489993,7.13649 z" />
      <path
         inkscape:connector-curvature="0"
         id="path168"
         style="fill:#d5d5d5;fill-opacity:1;fill-rule:nonzero;stroke:none;stroke-width:0.261555"
         d="m 98.477297,120.76913 0.557285,-2.64848 -6.732946,0.47078 -3.00737,14.33372 6.732683,-0.47105 0.557225,-2.64823 -4.123115,0.28808 0.776784,-3.67982 2.848294,-0.19912 0.55803,-2.6485 -2.848293,0.19912 0.557217,-2.70864 z"
         inkscape:label="path168"
         transform="translate(3.7799143,23.482217)" />
      <path
         inkscape:connector-curvature="0"
         id="path9"
         style="fill:#d5d5d5;fill-opacity:1;fill-rule:nonzero;stroke:none;stroke-width:0.347732"
         d="m 112.23379,146.13262 -4.73466,0.33077 0.57447,-2.73456 2.13929,-0.14973 -0.37624,1.80924 2.59544,-0.18103 0.93087,-4.44332 -7.33011,0.5118 -1.66358,8.00131 4.73467,-0.33077 -0.77301,3.62025 -2.11983,0.1484 0.47569,-2.23174 -2.61498,0.18237 -1.03033,4.86616 7.33011,-0.5118 z" />
    </g>
  </g>
</svg>
