<?xml version="1.0" encoding="UTF-8" standalone="no"?>
<!-- Created with Inkscape (http://www.inkscape.org/) -->

<svg
   width="136.62497mm"
   height="37.605061mm"
   viewBox="0 0 136.62497 37.60506"
   version="1.1"
   id="svg3223"
   inkscape:version="1.3.2 (091e20e, 2023-11-25, custom)"
   sodipodi:docname="NS_banner.svg"
   inkscape:export-filename="..\splashlogo.png"
   inkscape:export-xdpi="67.034012"
   inkscape:export-ydpi="67.034012"
   xmlns:inkscape="http://www.inkscape.org/namespaces/inkscape"
   xmlns:sodipodi="http://sodipodi.sourceforge.net/DTD/sodipodi-0.dtd"
   xmlns="http://www.w3.org/2000/svg"
   xmlns:svg="http://www.w3.org/2000/svg"
   xmlns:rdf="http://www.w3.org/1999/02/22-rdf-syntax-ns#"
   xmlns:cc="http://creativecommons.org/ns#"
   xmlns:dc="http://purl.org/dc/elements/1.1/">
  <defs
     id="defs3217" />
  <sodipodi:namedview
     id="base"
     pagecolor="#ffffff"
     bordercolor="#666666"
     borderopacity="1.0"
     inkscape:pageopacity="0.0"
     inkscape:pageshadow="2"
     inkscape:zoom="2.2518972"
     inkscape:cx="333.27454"
     inkscape:cy="-7.7712251"
     inkscape:document-units="mm"
     inkscape:current-layer="layer1"
     showgrid="false"
     inkscape:pagecheckerboard="true"
     inkscape:window-width="2560"
     inkscape:window-height="1566"
     inkscape:window-x="-11"
     inkscape:window-y="-11"
     inkscape:window-maximized="1"
     inkscape:showpageshadow="2"
     inkscape:deskcolor="#d1d1d1" />
  <metadata
     id="metadata3220">
    <rdf:RDF>
      <cc:Work
         rdf:about="">
        <dc:format>image/svg+xml</dc:format>
        <dc:type
           rdf:resource="http://purl.org/dc/dcmitype/StillImage" />
        <dc:title />
      </cc:Work>
    </rdf:RDF>
  </metadata>
  <g
     inkscape:label="Layer 1"
     inkscape:groupmode="layer"
     id="layer1"
     transform="translate(-62.155636,-109.30405)">
    <g
       transform="translate(-3.7799155,-23.482217)"
       id="g2559"
       style="display:inline">
      <path
         inkscape:connector-curvature="0"
         id="path172"
         style="fill:#d5d5d5;fill-opacity:1;fill-rule:nonzero;stroke:none;stroke-width:0.421221"
         d="m 127.67876,149.15787 -5.73528,0.40067 0.69588,-3.31248 2.59141,-0.18137 -0.45575,2.19161 3.14395,-0.2193 1.1276,-5.38236 -8.87924,0.61997 -2.01516,9.69229 5.73528,-0.40069 -0.93638,4.38535 -2.56782,0.17976 0.57622,-2.70339 -3.16761,0.22092 -1.24809,5.89455 8.87924,-0.61995 z" />
      <path
         inkscape:connector-curvature="0"
         id="path176"
         style="fill:#d5d5d5;fill-opacity:1;fill-rule:nonzero;stroke:none;stroke-width:0.421221"
         d="m 132.19062,145.57836 3.02361,-0.21104 -2.95149,14.07676 3.14361,-0.22047 2.95191,-14.07676 3.02351,-0.21103 0.67191,-3.19116 -9.19104,0.64279 z" />
      <path
         inkscape:connector-curvature="0"
         id="path180"
         style="fill:#d5d5d5;fill-opacity:1;fill-rule:nonzero;stroke:none;stroke-width:0.421221"
         d="m 147.66967,147.71199 0.67183,-3.26235 2.56773,-0.17975 -0.67227,3.26278 z m 3.43128,10.41511 3.62418,-17.26796 -8.85533,0.61965 -3.62375,17.26752 3.1437,-0.22048 1.6078,-7.59965 2.56763,-0.17975 -1.60779,7.60009 z" />
      <path
         inkscape:connector-curvature="0"
         id="path180-4"
         style="fill:#d5d5d5;fill-opacity:1;fill-rule:nonzero;stroke:none;stroke-width:0.421221"
         d="m 86.226486,159.82072 -2.567731,0.17977 z m -2.759449,-13.67746 -3.624186,17.26796 8.855331,-0.61965 3.623751,-17.26752 -3.143698,0.22048 -2.950116,14.0672 -2.567646,0.20417 2.950116,-14.09206 z"
         sodipodi:nodetypes="cccccccccccc" />
      <path
         inkscape:connector-curvature="0"
         id="path184"
         style="fill:#d5d5d5;fill-opacity:1;fill-rule:nonzero;stroke:none;stroke-width:0.421221"
         d="m 161.48419,157.42889 2.95195,-14.07677 3.02359,-0.21223 0.67221,-3.19035 -9.19105,0.6428 -0.67183,3.19033 3.02342,-0.21103 -2.95153,14.07719 z" />
      <path
         inkscape:connector-curvature="0"
         id="path188"
         style="fill:#d5d5d5;fill-opacity:1;fill-rule:nonzero;stroke:none;stroke-width:0.421221"
         d="m 168.3241,156.95048 3.14355,-0.21926 3.62372,-17.26795 -3.14369,0.22046 z" />
      <path
         inkscape:connector-curvature="0"
         id="path192"
         style="fill:#d5d5d5;fill-opacity:1;fill-rule:nonzero;stroke:none;stroke-width:0.421221"
         d="m 181.77929,142.16704 2.56774,-0.17976 -2.28018,10.88689 -2.56742,0.17973 z m -6.09548,14.29623 8.85488,-0.61829 3.62376,-17.26753 -8.85521,0.61831 z" />
      <path
         inkscape:connector-curvature="0"
         id="path196"
         style="fill:#d5d5d5;fill-opacity:1;fill-rule:nonzero;stroke:none;stroke-width:0.421221"
         d="m 191.89807,155.35853 1.65533,-7.84353 1.43975,7.6266 2.73584,-0.1913 3.62422,-17.26751 -3.14368,0.22047 -1.65632,7.96277 -1.43971,-7.74667 -2.73586,0.19127 -3.62291,17.26753 z" />
      <path
         inkscape:connector-curvature="0"
         id="path196-9"
         style="fill:#d5d5d5;fill-opacity:1;fill-rule:nonzero;stroke:none;stroke-width:0.421221"
         d="m 70.323688,164.21652 1.655328,-7.84353 1.439747,7.62661 2.73584,-0.19129 3.624222,-17.26752 -3.143685,0.22048 -1.656309,7.96275 -1.439722,-7.74667 -2.735852,0.19129 -3.622914,17.26751 z" />
      <path
         inkscape:connector-curvature="0"
         id="path204"
         style="fill:#000000;fill-opacity:1;fill-rule:nonzero;stroke:none;stroke-width:0.439596"
         d="m 71.730265,141.80809 -0.350756,1.72627 130.808771,-8.99232 0.37224,-1.75577 z" />
      <path
         inkscape:connector-curvature="0"
         id="path208"
         style="fill:#000000;fill-opacity:1;fill-rule:nonzero;stroke:none;stroke-width:0.439596"
         d="m 65.935551,170.39133 130.808809,-8.99281 0.37222,-1.75576 -130.829908,9.0218 z" />
      <path
         inkscape:connector-curvature="0"
         id="path168"
         style="fill:#d5d5d5;fill-opacity:1;fill-rule:nonzero;stroke:none;stroke-width:0.316831"
         d="m 115.59376,146.87901 0.67506,-3.20819 -8.15586,0.57027 -3.64294,17.36296 8.15554,-0.5706 0.675,-3.2079 -4.99449,0.34896 0.94095,-4.4575 3.45024,-0.24121 0.67596,-3.20822 -3.45023,0.24121 0.67497,-3.28108 z"
         inkscape:label="path168" />
      <path
         inkscape:connector-curvature="0"
         id="path9"
         style="fill:#d5d5d5;fill-opacity:1;fill-rule:nonzero;stroke:none;stroke-width:0.421221"
         d="m 127.67876,149.15787 -5.73528,0.40067 0.69588,-3.31248 2.59141,-0.18137 -0.45575,2.19161 3.14395,-0.2193 1.1276,-5.38236 -8.87924,0.61997 -2.01516,9.69229 5.73528,-0.40069 -0.93638,4.38535 -2.56782,0.17976 0.57622,-2.70339 -3.16761,0.22092 -1.24809,5.89455 8.87924,-0.61995 z" />
      <path
         inkscape:connector-curvature="0"
         id="path2"
         style="fill:#d5d5d5;fill-opacity:1;fill-rule:nonzero;stroke:none;stroke-width:0.421221"
         d="m 98.303999,153.60725 6.531961,-9.04868 -3.14368,0.22046 -3.445699,4.51124 0.905935,-4.317 -3.143685,0.22048 -3.623569,17.26674 3.14354,-0.21926 0.905922,-4.31699 1.635208,4.11743 3.143538,-0.21926 z"
         sodipodi:nodetypes="cccccccccccc"
         inkscape:label="path2" />
    </g>
    <a
       id="a1" />
  </g>
</svg>
