<?xml version="1.0" encoding="UTF-8" standalone="no"?>
<!-- Created with Inkscape (http://www.inkscape.org/) -->

<svg
   width="512"
   height="512"
   viewBox="0 0 512 512"
   version="1.1"
   id="svg1"
   xml:space="preserve"
   inkscape:version="1.3.2 (091e20e, 2023-11-25, custom)"
   sodipodi:docname="icon.svg"
   inkscape:export-filename="icon.png"
   inkscape:export-xdpi="100"
   inkscape:export-ydpi="100"
   xmlns:inkscape="http://www.inkscape.org/namespaces/inkscape"
   xmlns:sodipodi="http://sodipodi.sourceforge.net/DTD/sodipodi-0.dtd"
   xmlns="http://www.w3.org/2000/svg"
   xmlns:svg="http://www.w3.org/2000/svg"><sodipodi:namedview
     id="namedview1"
     pagecolor="#ffffff"
     bordercolor="#999999"
     borderopacity="1"
     inkscape:showpageshadow="0"
     inkscape:pageopacity="0"
     inkscape:pagecheckerboard="0"
     inkscape:deskcolor="#d1d1d1"
     inkscape:document-units="px"
     showgrid="false"
     inkscape:zoom="1.1890995"
     inkscape:cx="95.870867"
     inkscape:cy="270.37266"
     inkscape:window-width="1920"
     inkscape:window-height="1057"
     inkscape:window-x="1912"
     inkscape:window-y="-8"
     inkscape:window-maximized="1"
     inkscape:current-layer="svg1"><inkscape:grid
       id="grid6"
       units="px"
       originx="0"
       originy="0"
       spacingx="1"
       spacingy="1"
       empcolor="#0099e5"
       empopacity="0.30196078"
       color="#0099e5"
       opacity="0.14902"
       empspacing="5"
       dotted="false"
       gridanglex="30"
       gridanglez="30"
       visible="false" /></sodipodi:namedview><defs
     id="defs1" /><path
     class="st0"
     d="m 381.5776,471.82252 c -82.39323,42.19049 -165.33307,43.33348 -248.86926,-0.0993 l 89.40011,-152.31314 c 20.32499,12.07571 44.17828,12.17509 71.51017,0.0496 z M 380.28553,38.786024 C 458.00748,89.027013 500.49616,160.28869 504.62079,254.36009 l -176.66338,-1.24236 c 0.29814,-23.6545 -11.5291,-44.32735 -35.68054,-61.91915 z M 256.29817,211.12602 c 26.48708,0 47.95504,21.46794 47.95504,47.95502 0,26.4871 -21.46795,47.95505 -47.95503,47.95505 -26.4871,0 -47.95505,-21.46795 -47.95505,-47.95505 0,-26.48708 21.46795,-47.95502 47.95504,-47.95502 z M 7.9755425,255.45337 C 12.597115,163.02189 53.098007,90.617221 132.50958,39.978688 l 87.26325,153.605222 c -20.62316,11.57878 -32.59949,32.15224 -35.77992,61.86946 z"
     id="path1-9"
     style="stroke-width:4.96945"
     sodipodi:nodetypes="ccccccccccsssssccccc" /><g
     id="g6"
     transform="translate(-6.716354,-21.300551)"><path
       inkscape:connector-curvature="0"
       id="path172"
       style="fill:#d5d5d5;fill-opacity:1;fill-rule:nonzero;stroke:none;stroke-width:8.00515"
       d="m 455.33998,223.30495 -108.99712,7.61466 13.2249,-62.95253 49.24894,-3.44695 -8.66152,41.65066 59.74995,-4.16752 21.42959,-102.290079 -168.74725,11.782179 -38.29746,184.19896 108.99737,-7.61472 -17.79564,83.34214 -48.80077,3.41632 10.95101,-51.37714 -60.19971,4.1984 -23.71926,112.02429 168.74701,-11.78218 z" /><path
       inkscape:connector-curvature="0"
       id="path196"
       style="fill:#d5d5d5;fill-opacity:1;fill-rule:nonzero;stroke:none;stroke-width:8.00515"
       d="m 103.83636,450.71393 31.45903,-149.06413 27.36192,144.9415 51.9938,-3.63547 68.87724,-328.16407 -59.74477,4.19006 -31.47766,151.32986 -27.3615,-147.22313 -51.99404,3.63523 -68.852392,328.16413 z" /></g><style
     type="text/css"
     id="style1">.st0{fill-rule:evenodd;clip-rule:evenodd;}</style><style
     type="text/css"
     id="style1-2">.st0{fill-rule:evenodd;clip-rule:evenodd;}</style></svg>
